<svg xmlns="http://www.w3.org/2000/svg" viewBox="0 0 29.77 25.93"><g id="e88bfea8-dc2e-4139-9c97-f0c0d1bd6a38" data-name="Layer 2"><g id="a307ad15-3658-4f3a-b55b-a76e7d40309b" data-name="Layer 1"><path d="M29.77,21.59a.48.48,0,0,0-.07-.26h0L17.57.25A.5.5,0,0,0,17.14,0H12.59a.48.48,0,0,0-.26.07h0a.55.55,0,0,0-.17.17h0L.07,21.35a.5.5,0,0,0,0,.5l2.29,3.83h0a.38.38,0,0,0,.11.11.46.46,0,0,0,.07.07.55.55,0,0,0,.25.07H27.15a.48.48,0,0,0,.43-.26l2.11-3.81h0A.48.48,0,0,0,29.77,21.59ZM17.53,17.41h-5.2l2.57-4.55ZM28.4,21.09H10.26l1.52-2.68H22.6a.5.5,0,0,0,.43-.25.5.5,0,0,0,0-.5L13.45,1h3.4ZM12.59,1.51l9.15,15.9h-3L15.32,11.6h0L13.11,7.77a.52.52,0,0,0-.43-.25.51.51,0,0,0-.44.26L2.78,24.43l-1.7-2.84ZM26.85,24.93H3.65l9-15.9,1.64,2.83L9,21.34a.48.48,0,0,0-.05.17s0,0,0,.08a.45.45,0,0,0,0,.11.58.58,0,0,0,0,.14H9a.52.52,0,0,0,.43.25h19Z" style="fill:#040404"/></g></g></svg>